<svg xmlns="http://www.w3.org/2000/svg" width="1024" height="1024" viewBox="0 0 1024 1024">
  <circle cx="512" cy="520" r="366" fill="#54B5FF"/>
  <path fill="#0B2B58" d="M512 154c-88 76-144 209-144 366s56 290 144 366c88-76 144-209 144-366s-56-290-144-366Zm0 82c49 69 82 166 82 284s-33 215-82 284c-49-69-82-166-82-284s33-215 82-284Z"/>
  <path fill="#0B2B58" d="M179 482h666v76H179z"/>
  <path fill="#0B2B58" d="M244 350c69-74 164-120 268-120s199 46 268 120l-46 43c-58-59-137-95-222-95s-164 36-222 95l-46-43Zm0 340 46-43c58 59 137 95 222 95s164-36 222-95l46 43c-69 74-164 120-268 120S313 764 244 690Z"/>
</svg>
