<svg xmlns="http://www.w3.org/2000/svg" width="1024" height="1024" viewBox="0 0 1024 1024">
  <path fill="#D7D7D7" d="M193 518c0-189 143-337 323-337 176 0 319 149 319 337 0 184-143 329-320 329-181 0-322-144-322-329Z"/>
  <path d="M193 518c0-189 143-337 323-337 176 0 319 149 319 337 0 184-143 329-320 329-181 0-322-144-322-329Z" fill="none" stroke="#222222" stroke-width="46" stroke-linecap="round" stroke-linejoin="round"/>
  <path d="M510 183c-86 72-142 198-142 335 0 139 56 264 144 329M519 181c86 79 140 202 140 337 0 136-56 261-140 328M201 518c82-15 180-23 311-23 133 0 238 8 316 23M216 638c81 16 177 25 296 25 123 0 222-9 301-25" fill="none" stroke="#222222" stroke-width="40" stroke-linecap="round"/>
</svg>
